<?xml version="1.0" encoding="utf-8"?>
<svg version="1.1" id="Layer_1" x="0px" y="0px" viewBox="85.42 86.598 29.456 29.455" style="enable-background:new 0 0 200 200;" xmlns="http://www.w3.org/2000/svg">
  <style type="text/css">
	.st0{display:none;}
	.st1{display:inline;}
	.st2{fill:#B9B9B9;}
	.st3{display:inline;fill:#004E79;}
	.st4{display:inline;fill:none;stroke:#004E79;stroke-width:1.86;stroke-miterlimit:10;}
	.st5{fill:#004E79;}
	.st6{fill:#C8ECFF;}
	.st7{display:inline;fill:#C8ECFF;}
	.st8{display:none;fill:#004E79;}
	.st9{fill:#FFFFFF;}
	.st10{fill:none;stroke:#707070;stroke-width:0.5;}
	.st11{display:inline;opacity:0.4;}
	.st12{fill:none;stroke:#39A2DB;stroke-width:5;}
	.st13{fill:#39A2DB;}
	.st14{display:none;fill:#F4AF31;}
	.st15{display:inline;fill:#F6F6F6;}
	.st16{fill:#1F8AFF;}
	.st17{fill:#39CF81;}
	.st18{display:inline;fill:#1F8AFF;}
	.st19{font-family:'FranklinGothic-DemiItalic';}
	.st20{font-size:27.5637px;}
</style>
  <g id="Group_38" transform="translate(325 39.185)" class="st0">
    <g id="Group_36" class="st1">
      <path id="Path_30" class="st2" d="M-226.93,69.3c-5.89,0-10.67-4.78-10.67-10.67s4.78-10.67,10.67-10.67s10.67,4.78,10.67,10.67 C-216.26,64.51-221.04,69.29-226.93,69.3z M-226.93,50.97c-4.23,0-7.65,3.43-7.65,7.65s3.43,7.65,7.65,7.65s7.65-3.43,7.65-7.65 c0,0,0,0,0,0C-219.28,54.4-222.7,50.98-226.93,50.97L-226.93,50.97z"/>
    </g>
    <g id="Group_37" transform="translate(15.37 15.897)" class="st1">
      <path id="Path_31" class="st2" d="M-229.28,57.78c-0.4,0-0.79-0.16-1.07-0.44l-6.81-6.81c-0.6-0.58-0.62-1.53-0.04-2.14 s1.53-0.62,2.14-0.04c0.01,0.01,0.03,0.03,0.04,0.04l6.81,6.81c0.59,0.59,0.59,1.55,0,2.14 C-228.49,57.62-228.88,57.78-229.28,57.78z"/>
    </g>
  </g>
  <g id="calendar_clock_icon-01" transform="translate(886.583 14.185)" class="st0">
    <path id="Path_63" class="st3" d="M-774.33,78.16h-29.09c-0.3-0.07-0.49-0.38-0.42-0.68c0.05-0.21,0.21-0.37,0.42-0.42h29.09 c0.3,0.07,0.49,0.38,0.42,0.68C-773.96,77.95-774.12,78.11-774.33,78.16z"/>
    <path id="Path_64" class="st3" d="M-799.54,89.57c-1.1,0-2-0.9-2-2s0.9-2,2-2c1.1,0,2,0.9,2,2S-798.43,89.57-799.54,89.57z M-799.54,86.67c0.01,0.21,0.18,0.37,0.39,0.36c0.21-0.01,0.37-0.18,0.36-0.39c-0.01-0.21-0.18-0.37-0.39-0.36 c-0.2,0.01-0.36,0.17-0.36,0.36V86.67z"/>
    <path id="Path_65" class="st3" d="M-799.54,94.49c-1.1,0-2-0.9-2-2s0.9-2,2-2c1.1,0,2,0.9,2,2S-798.43,94.49-799.54,94.49z M-799.54,91.59c-0.5,0-0.91,0.4-0.92,0.9s0.4,0.91,0.9,0.92c0.5,0,0.91-0.4,0.92-0.9c0-0.01,0-0.01,0-0.02 C-798.64,91.99-799.04,91.59-799.54,91.59z"/>
    <path id="Path_66" class="st3" d="M-794.27,89.57c-1.1,0-2-0.9-2-2s0.9-2,2-2c1.1,0,2,0.9,2,2S-793.17,89.57-794.27,89.57z M-794.27,86.67c0.01,0.21,0.18,0.37,0.39,0.36c0.21-0.01,0.37-0.18,0.36-0.39c-0.01-0.21-0.18-0.37-0.39-0.36 c-0.2,0.01-0.36,0.17-0.36,0.36V86.67z"/>
    <path id="Path_67" class="st3" d="M-794.27,94.49c-1.1,0-2-0.9-2-2s0.9-2,2-2c1.1,0,2,0.9,2,2S-793.17,94.49-794.27,94.49z M-794.27,91.59c-0.5,0-0.91,0.4-0.92,0.9c0,0.5,0.4,0.91,0.9,0.92c0.5,0,0.91-0.4,0.92-0.9c0-0.01,0-0.01,0-0.02 C-793.38,91.99-793.78,91.59-794.27,91.59z"/>
    <path id="Path_68" class="st3" d="M-789.01,84.61c-1.1,0-2-0.9-2-2s0.9-2,2-2c1.1,0,2,0.9,2,2S-787.91,84.61-789.01,84.61z M-789.01,81.69c0.01,0.21,0.18,0.37,0.39,0.37c0.21-0.01,0.37-0.18,0.37-0.39c-0.01-0.21-0.18-0.37-0.39-0.37 c-0.2,0.01-0.36,0.17-0.37,0.37V81.69z"/>
    <path id="Path_69" class="st3" d="M-794.27,84.61c-1.1,0-2-0.9-2-2s0.9-2,2-2c1.1,0,2,0.9,2,2S-793.17,84.61-794.27,84.61z M-794.27,81.69c0.01,0.21,0.18,0.37,0.39,0.37c0.21-0.01,0.37-0.18,0.37-0.39c-0.01-0.21-0.18-0.37-0.39-0.37 c-0.2,0.01-0.36,0.17-0.37,0.37V81.69z"/>
    <path id="Path_70" class="st3" d="M-789.01,89.57c-1.1,0-2-0.9-2-2s0.9-2,2-2c1.1,0,2,0.9,2,2S-787.91,89.57-789.01,89.57z M-789.01,86.67c0.01,0.21,0.18,0.37,0.39,0.36c0.21-0.01,0.37-0.18,0.36-0.39c-0.01-0.21-0.18-0.37-0.39-0.36 c-0.2,0.01-0.36,0.17-0.36,0.36V86.67z"/>
    <path id="Path_71" class="st3" d="M-789.01,94.49c-1.1,0-2-0.9-2-2s0.9-2,2-2c1.1,0,2,0.9,2,2S-787.91,94.49-789.01,94.49z M-789.01,91.59c-0.5,0-0.91,0.4-0.92,0.9c0,0.5,0.4,0.91,0.9,0.92c0.5,0,0.91-0.4,0.92-0.9c0-0.01,0-0.01,0-0.02 C-788.12,91.99-788.52,91.59-789.01,91.59z"/>
    <path id="Path_72" class="st3" d="M-783.75,84.61c-1.1,0-2-0.9-2-2s0.9-2,2-2s2,0.9,2,2S-782.64,84.61-783.75,84.61z M-783.75,81.69c0.01,0.21,0.18,0.37,0.39,0.37c0.21-0.01,0.37-0.18,0.37-0.39c-0.01-0.21-0.18-0.37-0.39-0.37 c-0.2,0.01-0.36,0.17-0.37,0.37V81.69z"/>
    <path id="Path_73" class="st3" d="M-778.49,84.61c-1.1,0-2-0.9-2-2s0.9-2,2-2s2,0.9,2,2S-777.38,84.61-778.49,84.61z M-778.49,81.69c0.01,0.21,0.18,0.37,0.39,0.37c0.21-0.01,0.37-0.18,0.37-0.39c-0.01-0.21-0.18-0.37-0.39-0.37 c-0.2,0.01-0.36,0.17-0.37,0.37V81.69z"/>
    <path id="Path_74" class="st3" d="M-800.59,75.34c-0.31,0-0.57-0.25-0.57-0.57c0,0,0,0,0,0v-4.35c0.07-0.3,0.38-0.49,0.68-0.42 c0.21,0.05,0.37,0.21,0.42,0.42v4.36C-800.07,75.09-800.3,75.33-800.59,75.34z"/>
    <path id="Path_75" class="st3" d="M-798.75,75.34c-0.31,0-0.57-0.25-0.57-0.57c0,0,0,0,0,0v-4.35c0.07-0.3,0.38-0.49,0.68-0.42 c0.21,0.05,0.37,0.21,0.42,0.42v4.36C-798.22,75.09-798.45,75.33-798.75,75.34z"/>
    <path id="Path_76" class="st3" d="M-793.48,75.34c-0.31,0-0.57-0.25-0.57-0.57v-4.35c0.07-0.3,0.38-0.49,0.68-0.42 c0.21,0.05,0.37,0.21,0.42,0.42v4.36C-792.96,75.09-793.19,75.33-793.48,75.34z"/>
    <path id="Path_77" class="st3" d="M-791.64,75.34c-0.31,0-0.57-0.25-0.57-0.57v-4.35c0.07-0.3,0.38-0.49,0.68-0.42 c0.21,0.05,0.37,0.21,0.42,0.42v4.36C-791.12,75.09-791.35,75.33-791.64,75.34z"/>
    <path id="Path_78" class="st3" d="M-786.38,75.34c-0.31,0-0.57-0.25-0.57-0.57v-4.35c-0.07-0.3,0.12-0.61,0.42-0.68 s0.61,0.12,0.68,0.42c0.02,0.09,0.02,0.17,0,0.26v4.36C-785.85,75.09-786.08,75.33-786.38,75.34z"/>
    <path id="Path_79" class="st3" d="M-784.54,75.34c-0.31,0-0.56-0.25-0.56-0.57v-4.35c-0.07-0.3,0.12-0.61,0.42-0.68 s0.61,0.12,0.68,0.42c0.02,0.09,0.02,0.17,0,0.26v4.36C-784.01,75.09-784.24,75.33-784.54,75.34z"/>
    <path id="Path_80" class="st3" d="M-779.28,75.34c-0.31,0-0.57-0.25-0.57-0.57v-4.35c-0.07-0.3,0.12-0.61,0.42-0.68 s0.61,0.12,0.68,0.42c0.02,0.09,0.02,0.17,0,0.26v4.36C-778.75,75.09-778.98,75.33-779.28,75.34z"/>
    <path id="Path_81" class="st3" d="M-777.44,75.34c-0.31,0-0.57-0.25-0.57-0.56c0,0,0,0,0,0v-4.35c-0.07-0.3,0.12-0.61,0.42-0.68 c0.3-0.07,0.61,0.12,0.68,0.42c0.02,0.09,0.02,0.17,0,0.26v4.36C-776.91,75.09-777.15,75.33-777.44,75.34z"/>
    <path id="Path_82" class="st3" d="M-776.45,100.09c-3.71,0-6.71-2.99-6.72-6.7c-0.01-3.71,2.99-6.71,6.7-6.72 c3.71,0,6.71,2.99,6.72,6.7c0,0,0,0.01,0,0.01C-769.75,97.08-772.74,100.09-776.45,100.09z M-776.45,87.77 c-3.1,0-5.62,2.51-5.62,5.61c0,3.1,2.51,5.62,5.61,5.62c3.1,0,5.62-2.51,5.62-5.61c0,0,0-0.01,0-0.01 C-770.84,90.29-773.35,87.78-776.45,87.77z"/>
    <path id="Path_83" class="st3" d="M-776.45,101.89c-4.7,0-8.51-3.81-8.51-8.51s3.81-8.51,8.51-8.51s8.51,3.81,8.51,8.51l0,0 C-767.94,98.08-771.75,101.89-776.45,101.89C-776.45,101.89-776.45,101.89-776.45,101.89z M-776.45,85.97 c-4.1,0-7.41,3.32-7.41,7.42s3.32,7.41,7.41,7.41c4.1,0,7.42-3.32,7.42-7.41c0,0,0,0,0-0.01 C-769.03,89.29-772.35,85.97-776.45,85.97L-776.45,85.97z"/>
    <path id="Path_84" class="st3" d="M-793.49,73.36h-5.26c-0.3-0.07-0.49-0.38-0.42-0.68c0.05-0.21,0.21-0.37,0.42-0.42h5.26 c0.3,0.07,0.49,0.38,0.42,0.68C-793.12,73.15-793.28,73.31-793.49,73.36z"/>
    <path id="Path_85" class="st3" d="M-786.38,73.36h-5.26c-0.3,0.07-0.61-0.12-0.68-0.42s0.12-0.61,0.42-0.68 c0.09-0.02,0.17-0.02,0.26,0h5.26c0.3,0.07,0.49,0.38,0.42,0.68C-786.01,73.14-786.17,73.31-786.38,73.36z"/>
    <path id="Path_86" class="st3" d="M-779.28,73.36h-5.26c-0.3,0.07-0.61-0.12-0.68-0.42s0.12-0.61,0.42-0.68 c0.09-0.02,0.17-0.02,0.26,0h5.26c0.3-0.07,0.61,0.12,0.68,0.42s-0.12,0.61-0.42,0.68C-779.1,73.38-779.19,73.38-779.28,73.36z"/>
    <path id="Path_87" class="st3" d="M-784.28,96.69c-1.83-4.32,0.19-9.31,4.51-11.14c1.05-0.45,2.18-0.67,3.33-0.67 c0.53,0,1.05,0.05,1.57,0.14l1.1,0.69c0,0.3-0.24,0.55-0.54,0.55c-0.05,0-0.11-0.01-0.16-0.02c-0.64-0.18-1.31-0.26-1.97-0.26 c-4.09-0.01-7.41,3.3-7.42,7.38c0,1.27,0.32,2.51,0.93,3.62c0.16,0.26,0.07,0.6-0.19,0.75c-0.08,0.05-0.18,0.08-0.28,0.08"/>
    <path id="Path_88" class="st3" d="M-774.33,93.93h-2.12c-0.31,0-0.57-0.25-0.57-0.56l0,0v-2.47c0.07-0.3,0.38-0.49,0.68-0.42 c0.21,0.05,0.37,0.21,0.42,0.42v1.94h1.57c0.3,0.07,0.49,0.38,0.42,0.68c-0.05,0.21-0.21,0.37-0.42,0.42L-774.33,93.93z"/>
    <path id="Path_89" class="st4" d="M-772.7,85.97V72.81h-32.53v25.45h22.39"/>
  </g>
  <path id="Path_10" class="st5" d="M107.41,99.55c-0.07-1.11-0.38-2.2-0.93-3.17l0.92-0.51c-0.46-0.83-1.06-1.58-1.77-2.21l-0.7,0.79 c-0.83-0.74-1.83-1.29-2.9-1.59l0.29-1.01h-0.01c-0.75-0.21-1.53-0.32-2.31-0.32c-0.17,0-0.33,0-0.5,0.02l0.06,1.05 c-1.11,0.07-2.2,0.38-3.17,0.93l-0.51-0.92c-0.83,0.46-1.58,1.06-2.21,1.77l0.79,0.7c-0.74,0.83-1.29,1.82-1.59,2.89l-1.01-0.29 v0.02c-0.21,0.75-0.32,1.53-0.32,2.31c0,0.16,0,0.33,0.01,0.49l1.05-0.06c0.07,1.11,0.38,2.2,0.92,3.17l-0.92,0.51 c0.46,0.83,1.06,1.58,1.77,2.22l0.7-0.79c0.83,0.75,1.82,1.29,2.89,1.6l-0.29,1.01l0.03,0.01c0.75,0.21,1.53,0.32,2.31,0.32 c0.17,0,0.34,0,0.51-0.02l-0.06-1.06c1.11-0.07,2.2-0.39,3.17-0.93l0.51,0.92c0.83-0.46,1.58-1.07,2.21-1.78l-0.79-0.7 c0.74-0.83,1.29-1.83,1.59-2.9l1.01,0.29v-0.01c0.21-0.75,0.32-1.53,0.32-2.31c0-0.17,0-0.34-0.02-0.5L107.41,99.55z M98.16,106.5 L98.16,106.5l0.05-0.18L98.16,106.5z M104.32,101.22c-0.55,1.93-2.31,3.27-4.32,3.27c-0.41,0-0.83-0.06-1.22-0.17 c-2.39-0.68-3.77-3.16-3.1-5.55c0.55-1.93,2.31-3.27,4.32-3.27c0.41,0,0.83,0.06,1.22,0.17c1.93,0.55,3.27,2.31,3.27,4.32 C104.5,100.41,104.44,100.82,104.32,101.22L104.32,101.22z"/>
  <g id="Group_49" transform="translate(320.911 -151.854)" class="st0">
    <g id="Group_16-2" transform="translate(-283.369 692.8)" class="st1">
      <path id="Path_12" class="st5" d="M70.33-434.68H49.81v-16.11h20.52V-434.68z M68.11-448.56H52.04v11.66h16.07V-448.56z"/>
    </g>
    <g id="Group_17" transform="translate(-275.329 697.527)" class="st1">
      <path id="Path_13" class="st5" d="M50.35-444.13c-0.09,0-0.19-0.03-0.27-0.07c-0.17-0.1-0.27-0.27-0.27-0.47v-5.58 c0-0.19,0.1-0.37,0.27-0.47c0.17-0.1,0.37-0.1,0.54,0l4.83,2.79c0.17,0.1,0.27,0.27,0.27,0.47c0,0.19-0.1,0.37-0.27,0.47 l-4.83,2.79C50.54-444.16,50.45-444.13,50.35-444.13z"/>
    </g>
    <g id="Group_43-2" transform="translate(0 0)" class="st1">
      <g id="Group_40-2">
        <path id="Path_32-2" class="st5" d="M-215.28,251.11v-0.19c0-0.31-0.26-0.55-0.56-0.55c0,0,0,0,0,0h-5.88 c-0.31,0-0.56,0.24-0.56,0.55v0v9.91h14.02v-9.18c0-0.31-0.26-0.55-0.56-0.55c0,0,0,0,0,0L-215.28,251.11z"/>
      </g>
      <g id="Group_41-2" transform="translate(0.623 1.529)">
        <rect id="Rectangle_15-2" x="-222.3" y="250.37" class="st6" width="12.91" height="9.03"/>
      </g>
      <g id="Group_42-2" transform="translate(0 2.296)">
        <path id="Path_33-2" class="st5" d="M-215.48,250.74l-0.21,0.56h-6.04c-0.31,0-0.56,0.24-0.56,0.55v0v7 c0,0.31,0.26,0.55,0.56,0.55c0,0,0,0,0,0h12.9c0.31,0,0.56-0.24,0.56-0.55c0,0,0,0,0,0v-7.93c0-0.31-0.26-0.55-0.56-0.55 c0,0,0,0,0,0h-6.12C-215.19,250.37-215.4,250.51-215.48,250.74z"/>
      </g>
    </g>
  </g>
  <g id="Group_18-2" transform="translate(320.911 -217.8)" class="st0">
    <g id="Group_48" class="st1">
      <path id="Path_12-2" class="st5" d="M-210.65,325.85h-20.52v-16.11h20.52V325.85z M-212.87,311.97h-16.07v11.66h16.07V311.97z"/>
      <path id="Path_13-2" class="st5" d="M-222.59,321.13c-0.09,0-0.19-0.03-0.27-0.07c-0.17-0.1-0.27-0.27-0.27-0.47v-5.58 c0-0.19,0.1-0.37,0.27-0.47c0.17-0.1,0.37-0.1,0.54,0l4.83,2.79c0.17,0.1,0.27,0.27,0.27,0.47c0,0.19-0.1,0.37-0.27,0.47 l-4.83,2.79C-222.4,321.1-222.5,321.13-222.59,321.13z"/>
    </g>
  </g>
  <g id="Group_29" transform="translate(0 46)" class="st0">
    <g id="Group_15" transform="translate(301.997 -123.583)" class="st1">
      <rect id="Rectangle_7" x="-214.64" y="167.78" class="st5" width="20.52" height="16.57"/>
      <path id="Path_11" class="st6" d="M-212.72,182.47l3.97-5.39l4.12,4.2l4.32-7.23l4.38,8.43L-212.72,182.47z"/>
    </g>
    <g id="Group_43-3" transform="translate(48.801 369.305)" class="st1">
      <path id="Path_32-3" class="st5" d="M56.83-316.09v-0.19c0-0.31-0.26-0.55-0.56-0.55c0,0,0,0,0,0h-5.88 c-0.31,0-0.56,0.24-0.56,0.55v0v9.91h14.02v-9.18c0-0.31-0.26-0.55-0.56-0.55c0,0,0,0,0,0L56.83-316.09z"/>
      <rect id="Rectangle_15-3" x="50.44" y="-315.3" class="st6" width="12.91" height="9.03"/>
      <path id="Path_33-3" class="st5" d="M56.63-314.17l-0.21,0.56h-6.04c-0.31,0-0.56,0.24-0.56,0.55v0v7c0,0.31,0.26,0.55,0.56,0.55 c0,0,0,0,0,0h12.9c0.31,0,0.56-0.24,0.56-0.55c0,0,0,0,0,0v-7.92c0-0.31-0.26-0.55-0.56-0.55c0,0,0,0,0,0h-6.12 C56.92-314.53,56.71-314.39,56.63-314.17z"/>
    </g>
  </g>
  <g id="Group_46" transform="translate(301.997 -166.583)" class="st0">
    <rect id="Rectangle_7-2" x="-212.26" y="258.3" class="st3" width="20.52" height="16.57"/>
    <path id="Path_11-2" class="st7" d="M-210.34,272.99l3.97-5.39l4.12,4.2l4.32-7.23l4.38,8.43L-210.34,272.99z"/>
  </g>
  <path id="Path_7" class="st8" d="M110.26,98.28v13.03h-7.07v-9.01h-6.39v9.01h-7.06V98.28L100,88.69L110.26,98.28z"/>
  <g id="Group_128" transform="translate(29.458 -33)" class="st0">
    <g id="Rectangle_676" transform="translate(1102 174)" class="st1">
      <rect x="-1059.46" y="-69" class="st9" width="56" height="56"/>
      <rect x="-1059.21" y="-68.75" class="st10" width="55.5" height="55.5"/>
    </g>
    <g id="Group_127" transform="translate(0 -0.5)" class="st11">
      <line id="Line_7" class="st12" x1="51.54" y1="122.5" x2="89.54" y2="122.5"/>
      <line id="Line_8" class="st12" x1="51.54" y1="133.5" x2="89.54" y2="133.5"/>
      <line id="Line_9" class="st12" x1="51.54" y1="144.5" x2="89.54" y2="144.5"/>
    </g>
  </g>
  <g id="Group_128-2" transform="translate(29.458 -33)" class="st0">
    <g id="Rectangle_676-2" transform="translate(1102 174)" class="st1">
      <rect x="-1059.46" y="-69" class="st9" width="56" height="56"/>
      <rect x="-1059.21" y="-68.75" class="st10" width="55.5" height="55.5"/>
    </g>
    <g id="Group_127-2" transform="translate(0 -0.5)" class="st1">
      <line id="Line_7-2" class="st12" x1="51.54" y1="122.5" x2="89.54" y2="122.5"/>
      <line id="Line_8-2" class="st12" x1="51.54" y1="133.5" x2="89.54" y2="133.5"/>
      <line id="Line_9-2" class="st12" x1="51.54" y1="144.5" x2="89.54" y2="144.5"/>
    </g>
  </g>
  <g id="Group_129" transform="translate(29.458 -33)" class="st0">
    <g id="Rectangle_671" transform="translate(1035 174)" class="st1">
      <rect x="-992.46" y="-69" class="st9" width="56" height="56"/>
      <rect x="-992.21" y="-68.75" class="st10" width="55.5" height="55.5"/>
    </g>
    <g id="Group_126" class="st1">
      <path id="Rectangle_672" class="st13" d="M54.54,115h13c1.1,0,2,0.9,2,2v13c0,1.1-0.9,2-2,2h-13c-1.1,0-2-0.9-2-2v-13 C52.54,115.9,53.44,115,54.54,115z"/>
      <path id="Rectangle_673" class="st13" d="M74.54,115h13c1.1,0,2,0.9,2,2v13c0,1.1-0.9,2-2,2h-13c-1.1,0-2-0.9-2-2v-13 C72.54,115.9,73.44,115,74.54,115z"/>
      <path id="Rectangle_674" class="st13" d="M54.54,135h13c1.1,0,2,0.9,2,2v13c0,1.1-0.9,2-2,2h-13c-1.1,0-2-0.9-2-2v-13 C52.54,135.9,53.44,135,54.54,135z"/>
      <path id="Rectangle_675" class="st13" d="M74.54,135h13c1.1,0,2,0.9,2,2v13c0,1.1-0.9,2-2,2h-13c-1.1,0-2-0.9-2-2v-13 C72.54,135.9,73.44,135,74.54,135z"/>
    </g>
  </g>
  <g id="Group_129-2" transform="translate(29.458 -33)" class="st0">
    <g id="Rectangle_671-2" transform="translate(1035 174)" class="st1">
      <rect x="-992.46" y="-69" class="st9" width="56" height="56"/>
      <rect x="-992.21" y="-68.75" class="st10" width="55.5" height="55.5"/>
    </g>
    <g id="Group_126-2" class="st11">
      <path id="Rectangle_672-2" class="st13" d="M54.54,115h13c1.1,0,2,0.9,2,2v13c0,1.1-0.9,2-2,2h-13c-1.1,0-2-0.9-2-2v-13 C52.54,115.9,53.44,115,54.54,115z"/>
      <path id="Rectangle_673-2" class="st13" d="M74.54,115h13c1.1,0,2,0.9,2,2v13c0,1.1-0.9,2-2,2h-13c-1.1,0-2-0.9-2-2v-13 C72.54,115.9,73.44,115,74.54,115z"/>
      <path id="Rectangle_674-2" class="st13" d="M54.54,135h13c1.1,0,2,0.9,2,2v13c0,1.1-0.9,2-2,2h-13c-1.1,0-2-0.9-2-2v-13 C52.54,135.9,53.44,135,54.54,135z"/>
      <path id="Rectangle_675-2" class="st13" d="M74.54,135h13c1.1,0,2,0.9,2,2v13c0,1.1-0.9,2-2,2h-13c-1.1,0-2-0.9-2-2v-13 C72.54,135.9,73.44,135,74.54,135z"/>
    </g>
  </g>
  <path id="Path_35" class="st14" d="M100.38,91.13l0.39,1.2h11.39c0.62,0.03,1.09,0.56,1.06,1.17v14.97 c0.03,0.62-0.45,1.15-1.06,1.18H87.84c-0.62-0.03-1.09-0.56-1.06-1.17V91.53c-0.03-0.62,0.45-1.14,1.06-1.18h11.54 C99.84,90.37,100.25,90.68,100.38,91.13z"/>
  <g id="Group_202" transform="translate(697.04 38.037)" class="st0">
    <path id="Path_178" class="st15" d="M-607.29,50.34c0.16,0.09,0.31,0.19,0.45,0.3c2.02,2.01,4.03,4.02,6.04,6.04 c0.12,0.11,0.23,0.23,0.33,0.36c0.32,0.42,0.28,1.01-0.09,1.38c-0.38,0.39-0.99,0.43-1.42,0.09c-0.11-0.09-0.22-0.19-0.32-0.3 c-2.03-2.02-4.05-4.05-6.08-6.07c-0.11-0.11-0.2-0.26-0.37-0.3c-0.1,0.14-0.05,0.29-0.05,0.43c-0.01,1.07,0,2.14-0.01,3.21 c0.04,0.59-0.41,1.1-1.01,1.14c-0.02,0-0.03,0-0.05,0c-0.59,0.01-1.07-0.47-1.08-1.05c0-0.02,0-0.04,0-0.06 c-0.01-2.11-0.01-4.21,0-6.32c-0.04-0.58,0.4-1.08,0.98-1.11c0.05,0,0.1,0,0.15,0c2.09-0.01,4.18-0.01,6.28,0 c0.59-0.04,1.1,0.41,1.14,1c0,0.02,0,0.04,0,0.05c0.01,0.6-0.47,1.08-1.07,1.09c-0.03,0-0.06,0-0.09,0 c-1.19,0.01-2.37,0.01-3.56,0.02C-607.17,50.26-607.23,50.3-607.29,50.34z"/>
    <path id="Path_179" class="st15" d="M-608.63,72.18c0.08-0.15,0.17-0.28,0.27-0.41c2.04-2.05,4.09-4.1,6.13-6.14 c0.24-0.31,0.62-0.47,1.02-0.45c0.4,0.03,0.74,0.29,0.88,0.66c0.17,0.39,0.08,0.85-0.23,1.15c-0.49,0.51-1,1.01-1.51,1.52 c-1.59,1.6-3.19,3.19-4.78,4.79c-0.11,0.11-0.26,0.2-0.31,0.37c0.14,0.1,0.29,0.05,0.43,0.05c1.07,0.01,2.14,0,3.21,0.01 c0.59-0.04,1.1,0.41,1.14,1.01c0,0.02,0,0.03,0,0.05c0.01,0.59-0.47,1.07-1.06,1.08c-0.02,0-0.04,0-0.06,0 c-2.11,0.01-4.21,0.01-6.32,0c-0.58,0.03-1.08-0.41-1.11-1c0-0.04,0-0.09,0-0.13c-0.01-2.09-0.01-4.18,0-6.28 c-0.04-0.59,0.4-1.1,0.99-1.14c0.02,0,0.04,0,0.06,0c0.59-0.01,1.08,0.47,1.09,1.06c0,0.03,0,0.06,0,0.09c0.01,1.2,0,2.4,0,3.6 L-608.63,72.18z"/>
    <path id="Path_180" class="st15" d="M-585.46,51.74c-0.07,0.15-0.16,0.29-0.26,0.41c-2.01,2.02-4.02,4.03-6.04,6.05 c-0.11,0.12-0.23,0.23-0.36,0.33c-0.43,0.33-1.04,0.29-1.42-0.11c-0.37-0.38-0.4-0.97-0.07-1.39c0.09-0.11,0.19-0.22,0.3-0.32 c2.02-2.03,4.05-4.05,6.08-6.07c0.13-0.11,0.26-0.2,0.4-0.28c-0.12-0.13-0.3-0.19-0.47-0.15c-1.08-0.01-2.17,0-3.25-0.01 c-0.59,0.04-1.11-0.41-1.14-1c0-0.02,0-0.03,0-0.05c-0.01-0.59,0.46-1.08,1.05-1.09c0.04,0,0.07,0,0.11,0 c2.08-0.01,4.15-0.01,6.23,0c0.59-0.06,1.11,0.37,1.17,0.96c0.01,0.07,0.01,0.14,0,0.2c0.01,2.08,0.01,4.15,0,6.23 c0.04,0.59-0.4,1.11-0.99,1.15c-0.03,0-0.07,0-0.1,0c-0.6-0.02-1.07-0.51-1.05-1.11c0-0.01,0-0.03,0-0.04 c-0.01-1.19-0.01-2.37-0.02-3.56c0-0.01-0.01-0.02-0.02-0.04L-585.46,51.74z"/>
    <path id="Path_181" class="st15" d="M-586.9,73.72c-0.06-0.17-0.17-0.32-0.32-0.43c-2.07-2.07-4.13-4.13-6.2-6.2 c-0.33-0.27-0.47-0.71-0.37-1.12c0.09-0.39,0.4-0.69,0.79-0.77c0.43-0.09,0.88,0.08,1.15,0.43c2.04,2.05,4.09,4.1,6.13,6.14 c0.1,0.13,0.2,0.26,0.28,0.4c0.14-0.11,0.2-0.29,0.16-0.46c0.01-1.07,0-2.14,0-3.21c-0.07-0.59,0.36-1.13,0.95-1.19 c0.04,0,0.09-0.01,0.13-0.01c0.6,0.01,1.07,0.51,1.06,1.11c0,0.03,0,0.05-0.01,0.08c0,2.06,0,4.13,0,6.19 c0.06,0.59-0.37,1.11-0.95,1.17c-0.07,0.01-0.14,0.01-0.21,0c-2.08,0.01-4.15,0.01-6.23,0c-0.59,0.05-1.11-0.4-1.16-0.99 c0-0.03,0-0.06,0-0.09c0.01-0.6,0.5-1.07,1.1-1.06c0.03,0,0.06,0,0.09,0.01C-589.32,73.72-588.13,73.72-586.9,73.72z"/>
  </g>
  <g id="Group_16" transform="translate(-36.344 -17)" class="st0">
    <g id="Group_3" transform="translate(-86.672 -137.842)" class="st1">
      <g id="Group_2" transform="translate(168.818 168.818)">
        <circle id="Ellipse_5" class="st16" cx="-9.93" cy="85.21" r="22.56"/>
        <g id="Group_1" transform="translate(6.091 8.524)">
          <path id="Path_1" class="st9" d="M-30.59,65.31h25.2c0.19,0,0.39,0.03,0.57,0.09c2.86,0.75,4.75,3.47,4.46,6.41 c-0.47,5.32,0.03,9.58-11.9,9.58l0.94-6.13h5.32l0.79-4.7h-22.18L-30.59,65.31z"/>
          <path id="Path_2" class="st9" d="M-22.82,75.17h5.56L-19.3,89.6l-5.95,3.37L-22.82,75.17z"/>
        </g>
      </g>
      <path id="Path_3" class="st17" d="M185.53,258.2c-0.81-1.02-2.29-1.2-3.31-0.39c0,0-12.86,10.8-13.23,11.13l-5.06-4.46 c-1.22-1.08-3.09-0.97-4.17,0.25c-0.95,1.07-0.99,2.66-0.12,3.78l6.49,8.34c0.03,0.04,0.07,0.08,0.1,0.12 c1.27,1.5,3.52,1.68,5.02,0.41l14.11-16.05l0.04-0.04C186.2,260.43,186.25,259.12,185.53,258.2z"/>
    </g>
    <text transform="matrix(1 0 0 1 107.2145 127.7783)" class="st18 st19 st20" style="white-space: pre;">TestProof</text>
  </g>
</svg>