<?xml version="1.0" encoding="utf-8"?>
<!-- Generator: Adobe Illustrator 25.2.3, SVG Export Plug-In . SVG Version: 6.00 Build 0)  -->
<svg version="1.1" id="Layer_1" xmlns="http://www.w3.org/2000/svg" xmlns:xlink="http://www.w3.org/1999/xlink" x="0px" y="0px"
	 viewBox="0 0 200 200" style="enable-background:new 0 0 200 200;" xml:space="preserve">
<style type="text/css">
	.st0{fill:#FFFFFF;}
	.st1{fill:#B9B9B9;}
	.st2{fill:#004E79;}
	.st3{fill:none;stroke:#004E79;stroke-width:1.86;stroke-miterlimit:10;}
	.st4{fill:none;stroke:#707070;stroke-width:0.5;}
	.st5{opacity:0.4;}
	.st6{fill:none;stroke:#39A2DB;stroke-width:5;}
	.st7{display:none;}
	.st8{display:inline;}
	.st9{fill:#508CAE;}
	.st10{fill:#C8ECFF;}
	.st11{fill:#39A2DB;}
	.st12{display:inline;opacity:0.4;}
	.st13{display:none;fill:#F4AF31;}
	.st14{display:inline;fill:#F6F6F6;}
	.st15{fill:#1F8AFF;}
	.st16{fill:#39CF81;}
	.st17{display:inline;fill:#1F8AFF;}
	.st18{font-family:'FranklinGothic-DemiItalic';}
	.st19{font-size:27.5637px;}
</style>
<g id="Group_39" transform="translate(15.458 -29)">
	<path id="Path_34" class="st0" d="M-166.7-241.71h473.96c10.39,0,18.82,9.85,18.82,22c0,12.15-8.43,22-18.82,22H-166.7
		c-10.39,0-18.82-9.85-18.82-22C-185.52-231.86-177.09-241.71-166.7-241.71z"/>
	<g id="Group_38" transform="translate(325 39.185)">
		<g id="Group_36">
			<path id="Path_30" class="st1" d="M-482.85-249.37c-5.89,0-10.67-4.78-10.67-10.67s4.78-10.67,10.67-10.67
				s10.67,4.78,10.67,10.67C-472.18-254.15-476.95-249.38-482.85-249.37z M-482.85-267.69c-4.23,0-7.65,3.43-7.65,7.65
				s3.43,7.65,7.65,7.65s7.65-3.43,7.65-7.65c0,0,0,0,0,0C-475.2-264.27-478.62-267.69-482.85-267.69L-482.85-267.69z"/>
		</g>
		<g id="Group_37" transform="translate(15.37 15.897)">
			<path id="Path_31" class="st1" d="M-485.2-260.88c-0.4,0-0.79-0.16-1.07-0.44l-6.81-6.81c-0.6-0.58-0.62-1.53-0.04-2.14
				s1.53-0.62,2.14-0.04c0.01,0.01,0.03,0.03,0.04,0.04l6.81,6.81c0.59,0.59,0.59,1.55,0,2.14
				C-484.41-261.04-484.8-260.88-485.2-260.88z"/>
		</g>
	</g>
	<text transform="matrix(1 0 0 1 -129.516 -212.7135)" class="st1" style="font-family:'Montserrat-Medium'; font-size:17px;">Search</text>
</g>
<g id="Group_109" transform="translate(-37.542 -29)">
	<g id="calendar_clock_icon-01" transform="translate(886.583 14.185)">
		<path id="Path_63" class="st2" d="M-444.83-241.43h-29.09c-0.3-0.07-0.49-0.38-0.42-0.68c0.05-0.21,0.21-0.37,0.42-0.42h29.09
			c0.3,0.07,0.49,0.38,0.42,0.68C-444.45-241.64-444.62-241.48-444.83-241.43z"/>
		<path id="Path_64" class="st2" d="M-470.03-230.01c-1.1,0-2-0.9-2-2s0.9-2,2-2c1.1,0,2,0.9,2,2S-468.93-230.01-470.03-230.01z
			 M-470.03-232.92c0.01,0.21,0.18,0.37,0.39,0.36c0.21-0.01,0.37-0.18,0.36-0.39c-0.01-0.21-0.18-0.37-0.39-0.36
			c-0.2,0.01-0.36,0.17-0.36,0.36V-232.92z"/>
		<path id="Path_65" class="st2" d="M-470.03-225.09c-1.1,0-2-0.9-2-2s0.9-2,2-2c1.1,0,2,0.9,2,2S-468.93-225.09-470.03-225.09z
			 M-470.03-228c-0.5,0-0.91,0.4-0.92,0.9c0,0.5,0.4,0.91,0.9,0.92c0.5,0,0.91-0.4,0.92-0.9c0-0.01,0-0.01,0-0.02
			C-469.14-227.6-469.54-228-470.03-228z"/>
		<path id="Path_66" class="st2" d="M-464.77-230.01c-1.1,0-2-0.9-2-2s0.9-2,2-2c1.1,0,2,0.9,2,2S-463.67-230.01-464.77-230.01z
			 M-464.77-232.92c0.01,0.21,0.18,0.37,0.39,0.36c0.21-0.01,0.37-0.18,0.36-0.39c-0.01-0.21-0.18-0.37-0.39-0.36
			c-0.2,0.01-0.36,0.17-0.36,0.36V-232.92z"/>
		<path id="Path_67" class="st2" d="M-464.77-225.09c-1.1,0-2-0.9-2-2s0.9-2,2-2c1.1,0,2,0.9,2,2S-463.67-225.09-464.77-225.09z
			 M-464.77-228c-0.5,0-0.91,0.4-0.92,0.9c0,0.5,0.4,0.91,0.9,0.92s0.91-0.4,0.92-0.9c0-0.01,0-0.01,0-0.02
			C-463.88-227.6-464.28-228-464.77-228z"/>
		<path id="Path_68" class="st2" d="M-459.51-234.98c-1.1,0-2-0.9-2-2s0.9-2,2-2c1.1,0,2,0.9,2,2S-458.4-234.98-459.51-234.98z
			 M-459.51-237.89c0.01,0.21,0.18,0.37,0.39,0.37c0.21-0.01,0.37-0.18,0.37-0.39s-0.18-0.37-0.39-0.37
			c-0.2,0.01-0.36,0.17-0.37,0.37V-237.89z"/>
		<path id="Path_69" class="st2" d="M-464.77-234.98c-1.1,0-2-0.9-2-2s0.9-2,2-2c1.1,0,2,0.9,2,2S-463.67-234.98-464.77-234.98z
			 M-464.77-237.89c0.01,0.21,0.18,0.37,0.39,0.37c0.21-0.01,0.37-0.18,0.37-0.39s-0.18-0.37-0.39-0.37
			c-0.2,0.01-0.36,0.17-0.37,0.37V-237.89z"/>
		<path id="Path_70" class="st2" d="M-459.51-230.01c-1.1,0-2-0.9-2-2s0.9-2,2-2c1.1,0,2,0.9,2,2S-458.4-230.01-459.51-230.01z
			 M-459.51-232.92c0.01,0.21,0.18,0.37,0.39,0.36c0.21-0.01,0.37-0.18,0.36-0.39c-0.01-0.21-0.18-0.37-0.39-0.36
			c-0.2,0.01-0.36,0.17-0.36,0.36V-232.92z"/>
		<path id="Path_71" class="st2" d="M-459.51-225.09c-1.1,0-2-0.9-2-2s0.9-2,2-2c1.1,0,2,0.9,2,2S-458.4-225.09-459.51-225.09z
			 M-459.51-228c-0.5,0-0.91,0.4-0.92,0.9c0,0.5,0.4,0.91,0.9,0.92c0.5,0,0.91-0.4,0.92-0.9c0-0.01,0-0.01,0-0.02
			C-458.61-227.6-459.01-228-459.51-228z"/>
		<path id="Path_72" class="st2" d="M-454.24-234.98c-1.1,0-2-0.9-2-2s0.9-2,2-2c1.1,0,2,0.9,2,2S-453.14-234.98-454.24-234.98z
			 M-454.24-237.89c0.01,0.21,0.18,0.37,0.39,0.37c0.21-0.01,0.37-0.18,0.37-0.39s-0.18-0.37-0.39-0.37
			c-0.2,0.01-0.36,0.17-0.37,0.37V-237.89z"/>
		<path id="Path_73" class="st2" d="M-448.99-234.98c-1.1,0-2-0.9-2-2s0.9-2,2-2c1.1,0,2,0.9,2,2S-447.88-234.98-448.99-234.98z
			 M-448.99-237.89c0.01,0.21,0.18,0.37,0.39,0.37c0.21-0.01,0.37-0.18,0.37-0.39s-0.18-0.37-0.39-0.37
			c-0.2,0.01-0.36,0.17-0.37,0.37V-237.89z"/>
		<path id="Path_74" class="st2" d="M-471.09-244.24c-0.31,0-0.57-0.25-0.57-0.57c0,0,0,0,0,0v-4.35c0.07-0.3,0.38-0.49,0.68-0.42
			c0.21,0.05,0.37,0.21,0.42,0.42v4.36C-470.56-244.5-470.8-244.26-471.09-244.24z"/>
		<path id="Path_75" class="st2" d="M-469.24-244.24c-0.31,0-0.57-0.25-0.57-0.57c0,0,0,0,0,0v-4.35c0.07-0.3,0.38-0.49,0.68-0.42
			c0.21,0.05,0.37,0.21,0.42,0.42v4.36C-468.72-244.5-468.95-244.26-469.24-244.24z"/>
		<path id="Path_76" class="st2" d="M-463.98-244.24c-0.31,0-0.57-0.25-0.57-0.57v-4.35c0.07-0.3,0.38-0.49,0.68-0.42
			c0.21,0.05,0.37,0.21,0.42,0.42v4.36C-463.45-244.5-463.69-244.26-463.98-244.24z"/>
		<path id="Path_77" class="st2" d="M-462.14-244.24c-0.31,0-0.57-0.25-0.57-0.57v-4.35c0.07-0.3,0.38-0.49,0.68-0.42
			c0.21,0.05,0.37,0.21,0.42,0.42v4.36C-461.61-244.5-461.85-244.26-462.14-244.24z"/>
		<path id="Path_78" class="st2" d="M-456.88-244.24c-0.31,0-0.57-0.25-0.57-0.57v-4.35c-0.07-0.3,0.12-0.61,0.42-0.68
			c0.3-0.07,0.61,0.12,0.68,0.42c0.02,0.09,0.02,0.17,0,0.26v4.36C-456.35-244.5-456.58-244.26-456.88-244.24z"/>
		<path id="Path_79" class="st2" d="M-455.03-244.24c-0.31,0-0.57-0.25-0.57-0.57v-4.35c-0.07-0.3,0.12-0.61,0.42-0.68
			c0.3-0.07,0.61,0.12,0.68,0.42c0.02,0.09,0.02,0.17,0,0.26v4.36C-454.51-244.5-454.74-244.26-455.03-244.24z"/>
		<path id="Path_80" class="st2" d="M-449.77-244.24c-0.31,0-0.57-0.25-0.57-0.57v-4.35c-0.07-0.3,0.12-0.61,0.42-0.68
			c0.3-0.07,0.61,0.12,0.68,0.42c0.02,0.09,0.02,0.17,0,0.26v4.36C-449.25-244.5-449.48-244.26-449.77-244.24z"/>
		<path id="Path_81" class="st2" d="M-447.94-244.24c-0.31,0-0.57-0.25-0.57-0.57c0,0,0,0,0,0v-4.35c-0.07-0.3,0.12-0.61,0.42-0.68
			c0.3-0.07,0.61,0.12,0.68,0.42c0.02,0.09,0.02,0.17,0,0.26v4.36C-447.41-244.5-447.64-244.26-447.94-244.24z"/>
		<path id="Path_82" class="st2" d="M-446.94-219.5c-3.71,0-6.71-2.99-6.72-6.7s2.99-6.71,6.7-6.72c3.71,0,6.71,2.99,6.72,6.7
			c0,0,0,0.01,0,0.01C-440.24-222.5-443.24-219.5-446.94-219.5z M-446.94-231.81c-3.1,0-5.62,2.51-5.62,5.61
			c0,3.1,2.51,5.62,5.61,5.62s5.62-2.51,5.62-5.61c0,0,0-0.01,0-0.01C-441.34-229.3-443.85-231.81-446.94-231.81z"/>
		<path id="Path_83" class="st2" d="M-446.94-217.69c-4.7,0-8.51-3.81-8.51-8.51c0-4.7,3.81-8.51,8.51-8.51
			c4.7,0,8.51,3.81,8.51,8.51l0,0C-438.43-221.5-442.24-217.69-446.94-217.69C-446.94-217.69-446.94-217.69-446.94-217.69z
			 M-446.94-233.61c-4.1,0-7.42,3.32-7.42,7.42c0,4.1,3.32,7.41,7.42,7.41c4.1,0,7.41-3.32,7.41-7.41c0,0,0,0,0-0.01
			C-439.53-230.3-442.85-233.61-446.94-233.61L-446.94-233.61z"/>
		<path id="Path_84" class="st2" d="M-463.98-246.23h-5.26c-0.3-0.07-0.49-0.38-0.42-0.68c0.05-0.21,0.21-0.37,0.42-0.42h5.26
			c0.3,0.07,0.49,0.38,0.42,0.68C-463.61-246.44-463.78-246.28-463.98-246.23z"/>
		<path id="Path_85" class="st2" d="M-456.88-246.23h-5.26c-0.3,0.07-0.61-0.12-0.68-0.42s0.12-0.61,0.42-0.68
			c0.09-0.02,0.17-0.02,0.26,0h5.26c0.3,0.07,0.49,0.38,0.42,0.68C-456.5-246.44-456.67-246.28-456.88-246.23z"/>
		<path id="Path_86" class="st2" d="M-449.77-246.23h-5.26c-0.3,0.07-0.61-0.12-0.68-0.42s0.12-0.61,0.42-0.68
			c0.09-0.02,0.17-0.02,0.26,0h5.26c0.3-0.07,0.61,0.12,0.68,0.42c0.07,0.3-0.12,0.61-0.42,0.68
			C-449.6-246.21-449.69-246.21-449.77-246.23z"/>
		<path id="Path_87" class="st2" d="M-454.78-222.9c-1.83-4.32,0.19-9.31,4.51-11.14c1.05-0.45,2.18-0.67,3.33-0.67
			c0.53,0,1.05,0.05,1.57,0.14l1.1,0.69c0,0.3-0.24,0.55-0.54,0.55c-0.05,0-0.11-0.01-0.16-0.02c-0.64-0.18-1.31-0.26-1.97-0.26
			c-4.09-0.01-7.41,3.3-7.42,7.38c0,1.27,0.32,2.51,0.93,3.62c0.16,0.26,0.07,0.6-0.19,0.75c-0.08,0.05-0.18,0.08-0.28,0.08"/>
		<path id="Path_88" class="st2" d="M-444.83-225.66h-2.12c-0.31,0-0.57-0.25-0.57-0.57l0,0v-2.47c0.07-0.3,0.38-0.49,0.68-0.42
			c0.21,0.05,0.37,0.21,0.42,0.42v1.94h1.57c0.3,0.07,0.49,0.38,0.42,0.68c-0.05,0.21-0.21,0.37-0.42,0.42L-444.83-225.66z"/>
		<path id="Path_89" class="st3" d="M-443.19-233.61v-13.16h-32.53v25.45h22.39"/>
	</g>
	<text transform="matrix(1 0 0 1 457.4839 -213.7135)" class="st2" style="font-family:'Montserrat-SemiBold'; font-size:16px;">Filter by Date and Time</text>
	<text transform="matrix(1 0 0 1 -382.5161 493.2865)" class="st2" style="font-family:'Montserrat-SemiBold'; font-size:18px;">LOGOUT</text>
</g>
<g id="Group_128" transform="translate(29.458 -33)">
	<g id="Rectangle_676" transform="translate(1102 174)">
		<rect x="-493.52" y="-270.71" class="st0" width="56" height="56"/>
		<rect x="-493.27" y="-270.46" class="st4" width="55.5" height="55.5"/>
	</g>
	<g id="Group_127" transform="translate(0 -0.5)" class="st5">
		<line id="Line_7" class="st6" x1="617.48" y1="-79.21" x2="655.48" y2="-79.21"/>
		<line id="Line_8" class="st6" x1="617.48" y1="-68.21" x2="655.48" y2="-68.21"/>
		<line id="Line_9" class="st6" x1="617.48" y1="-57.21" x2="655.48" y2="-57.21"/>
	</g>
</g>
<g id="Group_18" transform="translate(-37.542 -13)" class="st7">
	<text transform="matrix(1 0 0 1 -420.516 352.2865)" class="st8" style="font-family:'Montserrat-SemiBold'; font-size:18px;">Profle Settings</text>
	<g id="Group_49" transform="translate(320.911 -151.854)" class="st8">
		<g id="Group_16-2" transform="translate(-283.369 692.8)">
			<path id="Path_12" d="M-473-254.6h-20.52v-16.11H-473V-254.6z M-475.22-268.49h-16.07v11.66h16.07V-268.49z"/>
		</g>
		<g id="Group_17" transform="translate(-275.329 697.527)">
			<path id="Path_13" d="M-492.98-264.06c-0.09,0-0.19-0.03-0.27-0.07c-0.17-0.1-0.27-0.27-0.27-0.47v-5.58
				c0-0.19,0.1-0.37,0.27-0.47c0.17-0.1,0.37-0.1,0.54,0l4.83,2.79c0.17,0.1,0.27,0.27,0.27,0.47c0,0.19-0.1,0.37-0.27,0.47
				l-4.83,2.79C-492.79-264.08-492.88-264.06-492.98-264.06z"/>
		</g>
		<text transform="matrix(1 0 0 1 -741.427 437.1405)" style="font-family:'Montserrat-SemiBold'; font-size:18px;">Test Steps Archive</text>
	</g>
	<g id="Group_50" transform="translate(48.801 415.305)" class="st8">
		<g id="Group_43" transform="translate(0 0)">
			<g id="Group_40">
				<path id="Path_32" class="st9" d="M-486.5-269.98v-0.19c0-0.31-0.26-0.55-0.56-0.55c0,0,0,0,0,0h-5.88
					c-0.31,0-0.56,0.24-0.56,0.55v0v9.91h14.02v-9.18c0-0.31-0.26-0.55-0.56-0.55c0,0,0,0,0,0L-486.5-269.98z"/>
			</g>
			<g id="Group_41" transform="translate(0.623 1.529)">
				<rect id="Rectangle_15" x="-493.52" y="-270.71" class="st10" width="12.91" height="9.03"/>
			</g>
			<g id="Group_42" transform="translate(0 2.296)">
				<path id="Path_33" class="st9" d="M-486.7-270.35l-0.21,0.56h-6.04c-0.31,0-0.56,0.24-0.56,0.55v0v7c0,0.31,0.26,0.55,0.56,0.55
					c0,0,0,0,0,0h12.9c0.31,0,0.56-0.24,0.56-0.55c0,0,0,0,0,0v-7.92c0-0.31-0.26-0.55-0.56-0.55c0,0,0,0,0,0h-6.12
					C-486.41-270.72-486.62-270.57-486.7-270.35z"/>
			</g>
		</g>
	</g>
	<g id="Group_51" transform="translate(48.801 549.305)" class="st8">
		<g id="Group_43-2" transform="translate(0 0)">
			<g id="Group_40-2">
				<path id="Path_32-2" class="st9" d="M-486.5-269.98v-0.19c0-0.31-0.26-0.55-0.56-0.55c0,0,0,0,0,0h-5.88
					c-0.31,0-0.56,0.24-0.56,0.55v0v9.91h14.02v-9.18c0-0.31-0.26-0.55-0.56-0.55c0,0,0,0,0,0L-486.5-269.98z"/>
			</g>
			<g id="Group_41-2" transform="translate(0.623 1.529)">
				<rect id="Rectangle_15-2" x="-493.52" y="-270.71" class="st10" width="12.91" height="9.03"/>
			</g>
			<g id="Group_42-2" transform="translate(0 2.296)">
				<path id="Path_33-2" class="st9" d="M-486.7-270.35l-0.21,0.56h-6.04c-0.31,0-0.56,0.24-0.56,0.55v0v7
					c0,0.31,0.26,0.55,0.56,0.55c0,0,0,0,0,0h12.9c0.31,0,0.56-0.24,0.56-0.55c0,0,0,0,0,0v-7.92c0-0.31-0.26-0.55-0.56-0.55
					c0,0,0,0,0,0h-6.12C-486.41-270.72-486.62-270.57-486.7-270.35z"/>
			</g>
		</g>
	</g>
	<path id="Path_10" class="st8" d="M-435.63,346.32c-0.07-1.11-0.38-2.2-0.93-3.17l0.92-0.51c-0.46-0.83-1.06-1.58-1.77-2.21
		l-0.7,0.79c-0.83-0.74-1.83-1.29-2.9-1.59l0.29-1.01h-0.01c-0.75-0.21-1.53-0.32-2.31-0.32c-0.17,0-0.33,0-0.5,0.02l0.06,1.05
		c-1.11,0.07-2.2,0.38-3.17,0.92l-0.51-0.92c-0.83,0.46-1.58,1.06-2.21,1.77l0.79,0.7c-0.74,0.83-1.29,1.82-1.59,2.89l-1.01-0.29
		v0.02c-0.21,0.75-0.32,1.53-0.32,2.31c0,0.16,0,0.33,0.01,0.49l1.05-0.06c0.07,1.11,0.38,2.2,0.92,3.17l-0.92,0.51
		c0.46,0.83,1.06,1.58,1.77,2.22l0.7-0.79c0.83,0.75,1.82,1.29,2.89,1.6l-0.29,1.01l0.03,0.01c0.75,0.21,1.53,0.32,2.31,0.32
		c0.17,0,0.34,0,0.51-0.02l-0.06-1.06c1.11-0.07,2.2-0.39,3.17-0.93l0.51,0.92c0.83-0.46,1.58-1.07,2.21-1.78l-0.79-0.7
		c0.74-0.83,1.29-1.83,1.59-2.9l1.01,0.29v-0.01c0.21-0.75,0.32-1.53,0.32-2.31c0-0.17,0-0.34-0.02-0.5L-435.63,346.32z
		 M-444.88,353.27L-444.88,353.27l0.05-0.18L-444.88,353.27z M-438.72,347.99c-0.55,1.93-2.31,3.27-4.32,3.27
		c-0.41,0-0.83-0.06-1.23-0.17c-2.39-0.68-3.77-3.16-3.1-5.55c0.55-1.93,2.31-3.27,4.32-3.27c0.41,0,0.83,0.06,1.23,0.17
		c1.93,0.55,3.27,2.31,3.27,4.32C-438.54,347.18-438.6,347.59-438.72,347.99L-438.72,347.99z"/>
	<g id="Group_18-2" transform="translate(320.911 -217.8)" class="st8">
		<text transform="matrix(1 0 0 1 -741.427 436.0865)" class="st2" style="font-family:'Montserrat-SemiBold'; font-size:18px;">Test Steps Maker</text>
		<g id="Group_48">
			<path id="Path_12-2" class="st2" d="M-756.37,438.2h-20.52v-16.11h20.52V438.2z M-758.59,424.31h-16.07v11.66h16.07V424.31z"/>
			<path id="Path_13-2" class="st2" d="M-768.31,433.47c-0.09,0-0.19-0.03-0.27-0.07c-0.17-0.1-0.27-0.27-0.27-0.47v-5.58
				c0-0.19,0.1-0.37,0.27-0.47c0.17-0.1,0.37-0.1,0.54,0l4.83,2.79c0.17,0.1,0.27,0.27,0.27,0.47c0,0.19-0.1,0.37-0.27,0.47
				l-4.83,2.79C-768.12,433.44-768.21,433.47-768.31,433.47z"/>
		</g>
	</g>
	<g id="Group_29" transform="translate(0 46)" class="st8">
		<g id="Group_15" transform="translate(301.997 -123.583)">
			<rect id="Rectangle_7" x="-757.97" y="213.89" width="20.52" height="16.57"/>
			<path id="Path_11" class="st10" d="M-756.05,228.58l3.97-5.39l4.12,4.2l4.32-7.23l4.38,8.43L-756.05,228.58z"/>
		</g>
		<text transform="matrix(1 0 0 1 -420.516 105.2865)" style="font-family:'Montserrat-SemiBold'; font-size:18px;">Screenshots Archive</text>
		<g id="Group_43-3" transform="translate(48.801 369.305)">
			<path id="Path_32-3" class="st9" d="M-486.5-269.98v-0.19c0-0.31-0.26-0.55-0.56-0.55c0,0,0,0,0,0h-5.88
				c-0.31,0-0.56,0.24-0.56,0.55v0v9.91h14.02v-9.18c0-0.31-0.26-0.55-0.56-0.55c0,0,0,0,0,0L-486.5-269.98z"/>
			<rect id="Rectangle_15-3" x="-492.89" y="-269.18" class="st10" width="12.91" height="9.03"/>
			<path id="Path_33-3" class="st9" d="M-486.7-268.05l-0.21,0.56h-6.04c-0.31,0-0.56,0.24-0.56,0.55v0v7
				c0,0.31,0.26,0.55,0.56,0.55c0,0,0,0,0,0h12.9c0.31,0,0.56-0.24,0.56-0.55c0,0,0,0,0,0v-7.92c0-0.31-0.26-0.55-0.56-0.55
				c0,0,0,0,0,0h-6.12C-486.41-268.42-486.62-268.28-486.7-268.05z"/>
		</g>
	</g>
	<g id="Group_28" transform="translate(0 23)" class="st8">
		<text transform="matrix(1 0 0 1 -420.516 61.2865)" style="font-family:'Montserrat-SemiBold'; font-size:18px;">Screenshots</text>
		<g id="Group_46" transform="translate(301.997 -166.583)">
			<rect id="Rectangle_7-2" x="-757.97" y="213.89" width="20.52" height="16.57"/>
			<path id="Path_11-2" class="st10" d="M-756.05,228.58l3.97-5.39l4.12,4.2l4.32-7.23l4.38,8.43L-756.05,228.58z"/>
		</g>
	</g>
	<g id="Group_27" class="st8">
		<text transform="matrix(1 0 0 1 -420.516 17.2865)" style="font-family:'Montserrat-SemiBold'; font-size:18px;">Dashboard</text>
		<path id="Path_7" d="M-435.46,6.87V19.9h-7.07v-9.01h-6.39v9.01h-7.07V6.87l10.26-9.58L-435.46,6.87z"/>
	</g>
</g>
<g id="Group_128-2" transform="translate(29.458 -33)">
	<g id="Rectangle_676-2" transform="translate(1102 174)">
		<rect x="-1059.46" y="-69" class="st0" width="56" height="56"/>
		<rect x="-1059.21" y="-68.75" class="st4" width="55.5" height="55.5"/>
	</g>
	<g id="Group_127-2" transform="translate(0 -0.5)">
		<line id="Line_7-2" class="st6" x1="51.54" y1="122.5" x2="89.54" y2="122.5"/>
		<line id="Line_8-2" class="st6" x1="51.54" y1="133.5" x2="89.54" y2="133.5"/>
		<line id="Line_9-2" class="st6" x1="51.54" y1="144.5" x2="89.54" y2="144.5"/>
	</g>
</g>
<g id="Group_129" transform="translate(29.458 -33)" class="st7">
	<g id="Rectangle_671" transform="translate(1035 174)" class="st8">
		<rect x="-992.46" y="-69" class="st0" width="56" height="56"/>
		<rect x="-992.21" y="-68.75" class="st4" width="55.5" height="55.5"/>
	</g>
	<g id="Group_126" class="st8">
		<path id="Rectangle_672" class="st11" d="M54.54,115h13c1.1,0,2,0.9,2,2v13c0,1.1-0.9,2-2,2h-13c-1.1,0-2-0.9-2-2v-13
			C52.54,115.9,53.44,115,54.54,115z"/>
		<path id="Rectangle_673" class="st11" d="M74.54,115h13c1.1,0,2,0.9,2,2v13c0,1.1-0.9,2-2,2h-13c-1.1,0-2-0.9-2-2v-13
			C72.54,115.9,73.44,115,74.54,115z"/>
		<path id="Rectangle_674" class="st11" d="M54.54,135h13c1.1,0,2,0.9,2,2v13c0,1.1-0.9,2-2,2h-13c-1.1,0-2-0.9-2-2v-13
			C52.54,135.9,53.44,135,54.54,135z"/>
		<path id="Rectangle_675" class="st11" d="M74.54,135h13c1.1,0,2,0.9,2,2v13c0,1.1-0.9,2-2,2h-13c-1.1,0-2-0.9-2-2v-13
			C72.54,135.9,73.44,135,74.54,135z"/>
	</g>
</g>
<g id="Group_129-2" transform="translate(29.458 -33)" class="st7">
	<g id="Rectangle_671-2" transform="translate(1035 174)" class="st8">
		<rect x="-992.46" y="-69" class="st0" width="56" height="56"/>
		<rect x="-992.21" y="-68.75" class="st4" width="55.5" height="55.5"/>
	</g>
	<g id="Group_126-2" class="st12">
		<path id="Rectangle_672-2" class="st11" d="M54.54,115h13c1.1,0,2,0.9,2,2v13c0,1.1-0.9,2-2,2h-13c-1.1,0-2-0.9-2-2v-13
			C52.54,115.9,53.44,115,54.54,115z"/>
		<path id="Rectangle_673-2" class="st11" d="M74.54,115h13c1.1,0,2,0.9,2,2v13c0,1.1-0.9,2-2,2h-13c-1.1,0-2-0.9-2-2v-13
			C72.54,115.9,73.44,115,74.54,115z"/>
		<path id="Rectangle_674-2" class="st11" d="M54.54,135h13c1.1,0,2,0.9,2,2v13c0,1.1-0.9,2-2,2h-13c-1.1,0-2-0.9-2-2v-13
			C52.54,135.9,53.44,135,54.54,135z"/>
		<path id="Rectangle_675-2" class="st11" d="M74.54,135h13c1.1,0,2,0.9,2,2v13c0,1.1-0.9,2-2,2h-13c-1.1,0-2-0.9-2-2v-13
			C72.54,135.9,73.44,135,74.54,135z"/>
	</g>
</g>
<path id="Path_35" class="st13" d="M100.38,91.13l0.39,1.2h11.39c0.62,0.03,1.09,0.56,1.06,1.17v14.97
	c0.03,0.62-0.45,1.15-1.06,1.18H87.84c-0.62-0.03-1.09-0.56-1.06-1.17V91.53c-0.03-0.62,0.45-1.14,1.06-1.18h11.54
	C99.84,90.37,100.25,90.68,100.38,91.13z"/>
<g id="Group_202" transform="translate(697.04 38.037)" class="st7">
	<path id="Path_178" class="st14" d="M-607.29,50.34c0.16,0.09,0.31,0.19,0.45,0.3c2.02,2.01,4.03,4.02,6.04,6.04
		c0.12,0.11,0.23,0.23,0.33,0.36c0.32,0.42,0.28,1.01-0.09,1.38c-0.38,0.39-0.99,0.43-1.42,0.09c-0.11-0.09-0.22-0.19-0.32-0.3
		c-2.03-2.02-4.05-4.05-6.08-6.07c-0.11-0.11-0.2-0.26-0.37-0.3c-0.1,0.14-0.05,0.29-0.05,0.43c-0.01,1.07,0,2.14-0.01,3.21
		c0.04,0.59-0.41,1.1-1.01,1.14c-0.02,0-0.03,0-0.05,0c-0.59,0.01-1.07-0.47-1.08-1.05c0-0.02,0-0.04,0-0.06
		c-0.01-2.11-0.01-4.21,0-6.32c-0.04-0.58,0.4-1.08,0.98-1.11c0.05,0,0.1,0,0.15,0c2.09-0.01,4.18-0.01,6.28,0
		c0.59-0.04,1.1,0.41,1.14,1c0,0.02,0,0.04,0,0.05c0.01,0.6-0.47,1.08-1.07,1.09c-0.03,0-0.06,0-0.09,0
		c-1.19,0.01-2.37,0.01-3.56,0.02C-607.17,50.26-607.23,50.3-607.29,50.34z"/>
	<path id="Path_179" class="st14" d="M-608.63,72.18c0.08-0.15,0.17-0.28,0.27-0.41c2.04-2.05,4.09-4.1,6.13-6.14
		c0.24-0.31,0.62-0.47,1.02-0.45c0.4,0.03,0.74,0.29,0.88,0.66c0.17,0.39,0.08,0.85-0.23,1.15c-0.49,0.51-1,1.01-1.51,1.52
		c-1.59,1.6-3.19,3.19-4.78,4.79c-0.11,0.11-0.26,0.2-0.31,0.37c0.14,0.1,0.29,0.05,0.43,0.05c1.07,0.01,2.14,0,3.21,0.01
		c0.59-0.04,1.1,0.41,1.14,1.01c0,0.02,0,0.03,0,0.05c0.01,0.59-0.47,1.07-1.06,1.08c-0.02,0-0.04,0-0.06,0
		c-2.11,0.01-4.21,0.01-6.32,0c-0.58,0.03-1.08-0.41-1.11-1c0-0.04,0-0.09,0-0.13c-0.01-2.09-0.01-4.18,0-6.28
		c-0.04-0.59,0.4-1.1,0.99-1.14c0.02,0,0.04,0,0.06,0c0.59-0.01,1.08,0.47,1.09,1.06c0,0.03,0,0.06,0,0.09c0.01,1.2,0,2.4,0,3.6
		L-608.63,72.18z"/>
	<path id="Path_180" class="st14" d="M-585.46,51.74c-0.07,0.15-0.16,0.29-0.26,0.41c-2.01,2.02-4.02,4.03-6.04,6.05
		c-0.11,0.12-0.23,0.23-0.36,0.33c-0.43,0.33-1.04,0.29-1.42-0.11c-0.37-0.38-0.4-0.97-0.07-1.39c0.09-0.11,0.19-0.22,0.3-0.32
		c2.02-2.03,4.05-4.05,6.08-6.07c0.13-0.11,0.26-0.2,0.4-0.28c-0.12-0.13-0.3-0.19-0.47-0.15c-1.08-0.01-2.17,0-3.25-0.01
		c-0.59,0.04-1.11-0.41-1.14-1c0-0.02,0-0.03,0-0.05c-0.01-0.59,0.46-1.08,1.05-1.09c0.04,0,0.07,0,0.11,0
		c2.08-0.01,4.15-0.01,6.23,0c0.59-0.06,1.11,0.37,1.17,0.96c0.01,0.07,0.01,0.14,0,0.2c0.01,2.08,0.01,4.15,0,6.23
		c0.04,0.59-0.4,1.11-0.99,1.15c-0.03,0-0.07,0-0.1,0c-0.6-0.02-1.07-0.51-1.05-1.11c0-0.01,0-0.03,0-0.04
		c-0.01-1.19-0.01-2.37-0.02-3.56c0-0.01-0.01-0.02-0.02-0.04L-585.46,51.74z"/>
	<path id="Path_181" class="st14" d="M-586.9,73.72c-0.06-0.17-0.17-0.32-0.32-0.43c-2.07-2.07-4.13-4.13-6.2-6.2
		c-0.33-0.27-0.47-0.71-0.37-1.12c0.09-0.39,0.4-0.69,0.79-0.77c0.43-0.09,0.88,0.08,1.15,0.43c2.04,2.05,4.09,4.1,6.13,6.14
		c0.1,0.13,0.2,0.26,0.28,0.4c0.14-0.11,0.2-0.29,0.16-0.46c0.01-1.07,0-2.14,0-3.21c-0.07-0.59,0.36-1.13,0.95-1.19
		c0.04,0,0.09-0.01,0.13-0.01c0.6,0.01,1.07,0.51,1.06,1.11c0,0.03,0,0.05-0.01,0.08c0,2.06,0,4.13,0,6.19
		c0.06,0.59-0.37,1.11-0.95,1.17c-0.07,0.01-0.14,0.01-0.21,0c-2.08,0.01-4.15,0.01-6.23,0c-0.59,0.05-1.11-0.4-1.16-0.99
		c0-0.03,0-0.06,0-0.09c0.01-0.6,0.5-1.07,1.1-1.06c0.03,0,0.06,0,0.09,0.01C-589.32,73.72-588.13,73.72-586.9,73.72z"/>
</g>
<g id="Group_16" transform="translate(-36.344 -17)" class="st7">
	<g id="Group_3" transform="translate(-86.672 -137.842)" class="st8">
		<g id="Group_2" transform="translate(168.818 168.818)">
			<circle id="Ellipse_5" class="st15" cx="-9.93" cy="85.21" r="22.56"/>
			<g id="Group_1" transform="translate(6.091 8.524)">
				<path id="Path_1" class="st0" d="M-30.59,65.31h25.2c0.19,0,0.39,0.03,0.57,0.09c2.86,0.75,4.75,3.47,4.46,6.41
					c-0.47,5.32,0.03,9.58-11.9,9.58l0.94-6.13h5.32l0.79-4.7h-22.18L-30.59,65.31z"/>
				<path id="Path_2" class="st0" d="M-22.82,75.17h5.56L-19.3,89.6l-5.95,3.37L-22.82,75.17z"/>
			</g>
		</g>
		<path id="Path_3" class="st16" d="M185.53,258.2c-0.81-1.02-2.29-1.2-3.31-0.39c0,0-12.86,10.8-13.23,11.13l-5.06-4.46
			c-1.22-1.08-3.09-0.97-4.17,0.25c-0.95,1.07-0.99,2.66-0.12,3.78l6.49,8.34c0.03,0.04,0.07,0.08,0.1,0.12
			c1.27,1.5,3.52,1.68,5.02,0.41l14.11-16.05l0.04-0.04C186.2,260.43,186.25,259.12,185.53,258.2z"/>
	</g>
	<text transform="matrix(1 0 0 1 107.2145 127.7783)" class="st17 st18 st19">TestProof</text>
</g>
<ellipse id="Ellipse_4" class="st11" cx="-23.43" cy="17.89" rx="16.66" ry="16.61"/>
<ellipse id="Ellipse_6" class="st2" cx="-23.43" cy="57.68" rx="16.66" ry="16.61"/>
</svg>
