<?xml version="1.0" encoding="utf-8"?>
<!-- Generator: Adobe Illustrator 25.2.3, SVG Export Plug-In . SVG Version: 6.00 Build 0)  -->
<svg version="1.1" id="Layer_1" xmlns="http://www.w3.org/2000/svg" xmlns:xlink="http://www.w3.org/1999/xlink" x="0px" y="0px"
	 viewBox="0 0 200 200" style="enable-background:new 0 0 200 200;" xml:space="preserve">
<style type="text/css">
	.st0{fill:#FFFFFF;}
	.st1{fill:#B9B9B9;}
	.st2{fill:#004E79;}
	.st3{fill:none;stroke:#004E79;stroke-width:1.86;stroke-miterlimit:10;}
	.st4{fill:none;stroke:#707070;stroke-width:0.5;}
	.st5{fill:#39A2DB;}
	.st6{opacity:0.4;}
	.st7{fill:none;stroke:#39A2DB;stroke-width:5;}
	.st8{fill:#508CAE;}
	.st9{fill:#C8ECFF;}
	.st10{display:none;}
	.st11{display:inline;}
	.st12{display:inline;opacity:0.4;}
	.st13{display:none;fill:#F4AF31;}
	.st14{display:inline;fill:#F6F6F6;}
	.st15{fill:#1F8AFF;}
	.st16{fill:#39CF81;}
	.st17{display:inline;fill:#1F8AFF;}
	.st18{font-family:'FranklinGothic-DemiItalic';}
	.st19{font-size:27.5637px;}
</style>
<g id="Group_109" transform="translate(-37.542 -29)">
</g>
<g id="Group_129" transform="translate(29.458 -33)">
	<g id="Rectangle_671" transform="translate(1035 174)">
		<rect x="-992.46" y="-69" class="st0" width="56" height="56"/>
		<rect x="-992.21" y="-68.75" class="st4" width="55.5" height="55.5"/>
	</g>
	<g id="Group_126">
		<path id="Rectangle_672" class="st5" d="M54.54,115h13c1.1,0,2,0.9,2,2v13c0,1.1-0.9,2-2,2h-13c-1.1,0-2-0.9-2-2v-13
			C52.54,115.9,53.44,115,54.54,115z"/>
		<path id="Rectangle_673" class="st5" d="M74.54,115h13c1.1,0,2,0.9,2,2v13c0,1.1-0.9,2-2,2h-13c-1.1,0-2-0.9-2-2v-13
			C72.54,115.9,73.44,115,74.54,115z"/>
		<path id="Rectangle_674" class="st5" d="M54.54,135h13c1.1,0,2,0.9,2,2v13c0,1.1-0.9,2-2,2h-13c-1.1,0-2-0.9-2-2v-13
			C52.54,135.9,53.44,135,54.54,135z"/>
		<path id="Rectangle_675" class="st5" d="M74.54,135h13c1.1,0,2,0.9,2,2v13c0,1.1-0.9,2-2,2h-13c-1.1,0-2-0.9-2-2v-13
			C72.54,135.9,73.44,135,74.54,135z"/>
	</g>
</g>
<g id="Group_129-2" transform="translate(29.458 -33)" class="st10">
	<g id="Rectangle_671-2" transform="translate(1035 174)" class="st11">
		<rect x="-992.46" y="-69" class="st0" width="56" height="56"/>
		<rect x="-992.21" y="-68.75" class="st4" width="55.5" height="55.5"/>
	</g>
	<g id="Group_126-2" class="st12">
		<path id="Rectangle_672-2" class="st5" d="M54.54,115h13c1.1,0,2,0.9,2,2v13c0,1.1-0.9,2-2,2h-13c-1.1,0-2-0.9-2-2v-13
			C52.54,115.9,53.44,115,54.54,115z"/>
		<path id="Rectangle_673-2" class="st5" d="M74.54,115h13c1.1,0,2,0.9,2,2v13c0,1.1-0.9,2-2,2h-13c-1.1,0-2-0.9-2-2v-13
			C72.54,115.9,73.44,115,74.54,115z"/>
		<path id="Rectangle_674-2" class="st5" d="M54.54,135h13c1.1,0,2,0.9,2,2v13c0,1.1-0.9,2-2,2h-13c-1.1,0-2-0.9-2-2v-13
			C52.54,135.9,53.44,135,54.54,135z"/>
		<path id="Rectangle_675-2" class="st5" d="M74.54,135h13c1.1,0,2,0.9,2,2v13c0,1.1-0.9,2-2,2h-13c-1.1,0-2-0.9-2-2v-13
			C72.54,135.9,73.44,135,74.54,135z"/>
	</g>
</g>
<path id="Path_35" class="st13" d="M100.38,91.13l0.39,1.2h11.39c0.62,0.03,1.09,0.56,1.06,1.17v14.97
	c0.03,0.62-0.45,1.15-1.06,1.18H87.84c-0.62-0.03-1.09-0.56-1.06-1.17V91.53c-0.03-0.62,0.45-1.14,1.06-1.18h11.54
	C99.84,90.37,100.25,90.68,100.38,91.13z"/>
<g id="Group_202" transform="translate(697.04 38.037)" class="st10">
	<path id="Path_178" class="st14" d="M-607.29,50.34c0.16,0.09,0.31,0.19,0.45,0.3c2.02,2.01,4.03,4.02,6.04,6.04
		c0.12,0.11,0.23,0.23,0.33,0.36c0.32,0.42,0.28,1.01-0.09,1.38c-0.38,0.39-0.99,0.43-1.42,0.09c-0.11-0.09-0.22-0.19-0.32-0.3
		c-2.03-2.02-4.05-4.05-6.08-6.07c-0.11-0.11-0.2-0.26-0.37-0.3c-0.1,0.14-0.05,0.29-0.05,0.43c-0.01,1.07,0,2.14-0.01,3.21
		c0.04,0.59-0.41,1.1-1.01,1.14c-0.02,0-0.03,0-0.05,0c-0.59,0.01-1.07-0.47-1.08-1.05c0-0.02,0-0.04,0-0.06
		c-0.01-2.11-0.01-4.21,0-6.32c-0.04-0.58,0.4-1.08,0.98-1.11c0.05,0,0.1,0,0.15,0c2.09-0.01,4.18-0.01,6.28,0
		c0.59-0.04,1.1,0.41,1.14,1c0,0.02,0,0.04,0,0.05c0.01,0.6-0.47,1.08-1.07,1.09c-0.03,0-0.06,0-0.09,0
		c-1.19,0.01-2.37,0.01-3.56,0.02C-607.17,50.26-607.23,50.3-607.29,50.34z"/>
	<path id="Path_179" class="st14" d="M-608.63,72.18c0.08-0.15,0.17-0.28,0.27-0.41c2.04-2.05,4.09-4.1,6.13-6.14
		c0.24-0.31,0.62-0.47,1.02-0.45c0.4,0.03,0.74,0.29,0.88,0.66c0.17,0.39,0.08,0.85-0.23,1.15c-0.49,0.51-1,1.01-1.51,1.52
		c-1.59,1.6-3.19,3.19-4.78,4.79c-0.11,0.11-0.26,0.2-0.31,0.37c0.14,0.1,0.29,0.05,0.43,0.05c1.07,0.01,2.14,0,3.21,0.01
		c0.59-0.04,1.1,0.41,1.14,1.01c0,0.02,0,0.03,0,0.05c0.01,0.59-0.47,1.07-1.06,1.08c-0.02,0-0.04,0-0.06,0
		c-2.11,0.01-4.21,0.01-6.32,0c-0.58,0.03-1.08-0.41-1.11-1c0-0.04,0-0.09,0-0.13c-0.01-2.09-0.01-4.18,0-6.28
		c-0.04-0.59,0.4-1.1,0.99-1.14c0.02,0,0.04,0,0.06,0c0.59-0.01,1.08,0.47,1.09,1.06c0,0.03,0,0.06,0,0.09c0.01,1.2,0,2.4,0,3.6
		L-608.63,72.18z"/>
	<path id="Path_180" class="st14" d="M-585.46,51.74c-0.07,0.15-0.16,0.29-0.26,0.41c-2.01,2.02-4.02,4.03-6.04,6.05
		c-0.11,0.12-0.23,0.23-0.36,0.33c-0.43,0.33-1.04,0.29-1.42-0.11c-0.37-0.38-0.4-0.97-0.07-1.39c0.09-0.11,0.19-0.22,0.3-0.32
		c2.02-2.03,4.05-4.05,6.08-6.07c0.13-0.11,0.26-0.2,0.4-0.28c-0.12-0.13-0.3-0.19-0.47-0.15c-1.08-0.01-2.17,0-3.25-0.01
		c-0.59,0.04-1.11-0.41-1.14-1c0-0.02,0-0.03,0-0.05c-0.01-0.59,0.46-1.08,1.05-1.09c0.04,0,0.07,0,0.11,0
		c2.08-0.01,4.15-0.01,6.23,0c0.59-0.06,1.11,0.37,1.17,0.96c0.01,0.07,0.01,0.14,0,0.2c0.01,2.08,0.01,4.15,0,6.23
		c0.04,0.59-0.4,1.11-0.99,1.15c-0.03,0-0.07,0-0.1,0c-0.6-0.02-1.07-0.51-1.05-1.11c0-0.01,0-0.03,0-0.04
		c-0.01-1.19-0.01-2.37-0.02-3.56c0-0.01-0.01-0.02-0.02-0.04L-585.46,51.74z"/>
	<path id="Path_181" class="st14" d="M-586.9,73.72c-0.06-0.17-0.17-0.32-0.32-0.43c-2.07-2.07-4.13-4.13-6.2-6.2
		c-0.33-0.27-0.47-0.71-0.37-1.12c0.09-0.39,0.4-0.69,0.79-0.77c0.43-0.09,0.88,0.08,1.15,0.43c2.04,2.05,4.09,4.1,6.13,6.14
		c0.1,0.13,0.2,0.26,0.28,0.4c0.14-0.11,0.2-0.29,0.16-0.46c0.01-1.07,0-2.14,0-3.21c-0.07-0.59,0.36-1.13,0.95-1.19
		c0.04,0,0.09-0.01,0.13-0.01c0.6,0.01,1.07,0.51,1.06,1.11c0,0.03,0,0.05-0.01,0.08c0,2.06,0,4.13,0,6.19
		c0.06,0.59-0.37,1.11-0.95,1.17c-0.07,0.01-0.14,0.01-0.21,0c-2.08,0.01-4.15,0.01-6.23,0c-0.59,0.05-1.11-0.4-1.16-0.99
		c0-0.03,0-0.06,0-0.09c0.01-0.6,0.5-1.07,1.1-1.06c0.03,0,0.06,0,0.09,0.01C-589.32,73.72-588.13,73.72-586.9,73.72z"/>
</g>
<g id="Group_16" transform="translate(-36.344 -17)" class="st10">
	<g id="Group_3" transform="translate(-86.672 -137.842)" class="st11">
		<g id="Group_2" transform="translate(168.818 168.818)">
			<circle id="Ellipse_5" class="st15" cx="-9.93" cy="85.21" r="22.56"/>
			<g id="Group_1" transform="translate(6.091 8.524)">
				<path id="Path_1" class="st0" d="M-30.59,65.31h25.2c0.19,0,0.39,0.03,0.57,0.09c2.86,0.75,4.75,3.47,4.46,6.41
					c-0.47,5.32,0.03,9.58-11.9,9.58l0.94-6.13h5.32l0.79-4.7h-22.18L-30.59,65.31z"/>
				<path id="Path_2" class="st0" d="M-22.82,75.17h5.56L-19.3,89.6l-5.95,3.37L-22.82,75.17z"/>
			</g>
		</g>
		<path id="Path_3" class="st16" d="M185.53,258.2c-0.81-1.02-2.29-1.2-3.31-0.39c0,0-12.86,10.8-13.23,11.13l-5.06-4.46
			c-1.22-1.08-3.09-0.97-4.17,0.25c-0.95,1.07-0.99,2.66-0.12,3.78l6.49,8.34c0.03,0.04,0.07,0.08,0.1,0.12
			c1.27,1.5,3.52,1.68,5.02,0.41l14.11-16.05l0.04-0.04C186.2,260.43,186.25,259.12,185.53,258.2z"/>
	</g>
	<text transform="matrix(1 0 0 1 107.2145 127.7783)" class="st17 st18 st19">TestProof</text>
</g>
</svg>
